#N canvas 551 169 450 300 10;
#X obj 107 54 adc~;
#X obj 112 112 fiddle~;
#X obj 165 191 pdj pd_bridge 1713;
#X obj 36 191 pdj pd_bridge 1712;
#X obj 167 167 * 4;
#X obj 219 84 zexy;
#X obj 55 151 flow.smooth 2;
#X obj 157 140 flow.smooth 2;
#X connect 0 0 1 0;
#X connect 1 0 6 0;
#X connect 1 3 7 0;
#X connect 4 0 2 0;
#X connect 6 0 3 0;
#X connect 7 0 4 0;
